<html>
<head>
<meta charset="UTF-8">
<meta name="viewport" content="width=device-width, initial-scale=1.0"/>

<style>
.comment
{
    padding-left: 20px;
    margin-top: 4px;
    margin-right: 4px;
    margin-bottom: 4px;
    border: 2px #000 solid;
}
.submission
{
    border: 4px #00f solid;
    padding-left: 20px;
}
.hidden
{
    display: none;
}
</style>
</head>
<body><div class="submission" id="t3_5xsmlj">
    <p class="userinfo">
        <a href="https://www.reddit.com/u/jodorowsthesky">jodorowsthesky</a>
        <span class="score"> | 25 points</span>
        <span class="timestamp"> | Mar 06 2017 10:54:34</span>
    </p>
    <strong>[MOVIE] Flash Gordon (1980) [1080p][x264][1.91GB]</strong>
    <p><p>.nz/#!4IISjKSS!ftgEnrZQRl68w8dhTn_BvGWnQRyQ2NglV6WYBTsqMq4  </p>
<pre><code>Format                                   : MPEG-4
Format profile                           : Base Media
Codec ID                                 : isom (isom/avc1)
File size                                : 1.92 GiB
Duration                                 : 1 h 51 min
Overall bit rate mode                    : Variable
Overall bit rate                         : 2 473 kb/s
Encoded date                             : UTC 2013-11-07 11:44:06
Tagged date                              : UTC 2013-11-07 11:44:06

Video
ID                                       : 1
Format                                   : AVC
Format/Info                              : Advanced Video Codec
Format profile                           : High@L4
Format settings, CABAC                   : Yes
Format settings, ReFrames                : 4 frames
Codec ID                                 : avc1
Codec ID/Info                            : Advanced Video Coding
Duration                                 : 1 h 51 min
Bit rate                                 : 1 967 kb/s
Maximum bit rate                         : 13.3 Mb/s
Width                                    : 1 920 pixels
Height                                   : 820 pixels
Display aspect ratio                     : 2.35:1
Frame rate mode                          : Constant
Frame rate                               : 23.976 (24000/1001) FPS
Color space                              : YUV
Chroma subsampling                       : 4:2:0
Bit depth                                : 8 bits
Scan type                                : Progressive
Bits/(Pixel*Frame)                       : 0.052
Stream size                              : 1.53 GiB (80%)
Writing library                          : x264 core 140 r2377 1ca7bb9
Encoding settings                        : cabac=1 / ref=3 / deblock=1:0:0 / analyse=0x3:0x113 / me=hex / subme=7 / psy=1 / psy_rd=1.00:0.00 / mixed_ref=1 / me_range=16 / chroma_me=1 / trellis=1 / 8x8dct=1 / cqm=0 / deadzone=21,11 / fast_pskip=1 / chroma_qp_offset=-2 / threads=12 / lookahead_threads=2 / sliced_threads=0 / nr=0 / decimate=1 / interlaced=0 / bluray_compat=0 / constrained_intra=0 / bframes=3 / b_pyramid=2 / b_adapt=1 / b_bias=0 / direct=1 / weightb=1 / open_gop=0 / weightp=2 / keyint=240 / keyint_min=23 / scenecut=40 / intra_refresh=0 / rc_lookahead=40 / rc=2pass / mbtree=1 / bitrate=1967 / ratetol=1.0 / qcomp=0.60 / qpmin=0 / qpmax=69 / qpstep=4 / cplxblur=20.0 / qblur=0.5 / ip_ratio=1.40 / aq=1:1.00
Encoded date                             : UTC 2013-11-07 11:44:06
Tagged date                              : UTC 2013-11-07 11:44:32

Audio #1
ID                                       : 2
Format                                   : AAC
Format/Info                              : Advanced Audio Codec
Format profile                           : LC
Codec ID                                 : 40
Duration                                 : 1 h 51 min
Bit rate mode                            : Variable
Bit rate                                 : 384 kb/s
Maximum bit rate                         : 453 kb/s
Channel(s)                               : 6 channels
Channel positions                        : Front: L C R, Side: L R, LFE
Sampling rate                            : 48.0 kHz
Frame rate                               : 46.875 FPS (1024 spf)
Compression mode                         : Lossy
Stream size                              : 300 MiB (15%)
Language                                 : English
Encoded date                             : UTC 2013-11-07 08:30:09
Tagged date                              : UTC 2013-11-07 11:44:32

Audio #2
ID                                       : 3
Format                                   : AAC
Format/Info                              : Advanced Audio Codec
Format profile                           : LC
Codec ID                                 : 40
Duration                                 : 1 h 51 min
Bit rate mode                            : Variable
Bit rate                                 : 124 kb/s
Maximum bit rate                         : 145 kb/s
Channel(s)                               : 2 channels
Channel positions                        : Front: L R
Sampling rate                            : 48.0 kHz
Frame rate                               : 46.875 FPS (1024 spf)
Compression mode                         : Lossy
Stream size                              : 98.9 MiB (5%)
Language                                 : English
Encoded date                             : UTC 2013-11-07 09:39:18
Tagged date                              : UTC 2013-11-07 11:44:32
</code></pre></p>
    <p class="toolbar">
        <a href="https://www.reddit.com/r/megalinks/comments/5xsmlj">permalink</a>
    </p>
</div>
<div class="comment" id="t1_dekjcop">
    <p class="userinfo">
        <a
        class="toggle_hide_button"
        href="javascript:void(0)"
        onclick="toggle_collapse(this.parentElement.parentElement)">[-]
        </a>
        <a href="https://www.reddit.com/u/boltrop">boltrop</a>
        <span class="score"> | 3 points</span>
        <span class="timestamp"> | Mar 06 2017 10:59:06</span>
    </p>
    <div class="collapsible">
        <h3><a href="https://images-na.ssl-images-amazon.com/images/M/MV5BMjE1OTU3ODAwMl5BMl5BanBnXkFtZTcwMzQ2NjczNA@@._V1_.jpg">Flash Gordon</a> (1980)</h3>
<p><strong>Genre</strong>: Action, Adventure, Sci-Fi</p>
<p><strong>Rating</strong>:  6.5 (39630 votes)</p>
<p><strong>Certification</strong>: PG</p>
<p><strong>Runtime</strong>: 111 min</p>
<hr>
<blockquote>
<p><strong>Director(s)</strong>: <a href="https://www.imdb.com/name/nm0388198/">Mike Hodges</a></p>
<p><strong>Writer(s)</strong>: <a href="https://www.imdb.com/name/nm0783913/">Lorenzo Semple Jr.</a>, <a href="https://www.imdb.com/name/nm0021363/">Michael Allin</a></p>
<p><strong>Cast</strong>: <a href="https://www.imdb.com/name/nm0429207/">Sam J. Jones</a>, <a href="https://www.imdb.com/name/nm0000758/">Melody Anderson</a>, <a href="https://www.imdb.com/name/nm0001884/">Max von Sydow</a>, <a href="https://www.imdb.com/name/nm0867694/">Topol</a></p>
<p><strong>Plot</strong>: A football player and his friends travel to the planet Mongo and find themselves fighting the tyranny of Ming the Merciless to save Earth.</p>
</blockquote>
<hr>
<p>^This ^summary ^is ^taken ^from <a href="https://www.imdb.com/title/tt0080745/">^imdb.com</a> ^| ^For ^feedback ^or ^suggestions ^contact <a href="http://www.reddit.com/message/compose/?to=indigo6alpha">^/u/indigo6alpha</a></p>
        <p class="toolbar">
            <a href="https://www.reddit.com/r/megalinks/comments/5xsmlj/_/dekjcop">permalink</a>
        </p>
        
    </div>
</div>

<div class="comment" id="t1_dekjan6">
    <p class="userinfo">
        <a
        class="toggle_hide_button"
        href="javascript:void(0)"
        onclick="toggle_collapse(this.parentElement.parentElement)">[-]
        </a>
        <a href="https://www.reddit.com/u/SubZorro">SubZorro</a>
        <span class="score"> | 2 points</span>
        <span class="timestamp"> | Mar 06 2017 10:56:05</span>
    </p>
    <div class="collapsible">
        <h5>Subtitles for this movie:</h5>
<hr>
<blockquote>
<ul>
<li>
<p><strong>Flash Gordon (1980)</strong> - <code>1 CD</code> - <a href="http://dl.opensubtitles.org/en/download/vrf-1eaed026/sub/3528383">Download Subtitle</a></p>
</li>
<li>
<p><strong>Flash.Gordon.1980.iNTERNAL.DVDRip.XviD-UNDEAD</strong> - <code>1 CD</code> - <a href="http://dl.opensubtitles.org/en/download/vrf-3ebfaa71/sub/3104909">Download Subtitle</a></p>
</li>
<li>
<p><strong>Flash.Gordon.1980.1080p.BluRay.x264.anoXmous</strong> - <code>1 CD</code> - <a href="http://dl.opensubtitles.org/en/download/vrf-881aa62f/sub/5601237">Download Subtitle</a></p>
</li>
<li>
<p><strong>Flash Gordon [RG] 2 cds</strong> - <code>2 CD</code> - <a href="http://dl.opensubtitles.org/en/download/vrf-3369e552/sub/150922">Download Subtitle</a></p>
</li>
<li>
<p><strong>Flash.Gordon.1980.720p.BrRip.x264.Deceit.YIFY</strong> - <code>1 CD</code> - <a href="http://dl.opensubtitles.org/en/download/vrf-5b42fa8d/sub/5971810">Download Subtitle</a></p>
</li>
<li>
<p><strong>Flash.Gordon.(1980).SAE.DVDRip.AC3.XviD-TMRC</strong> - <code>1 CD</code> - <a href="http://dl.opensubtitles.org/en/download/vrf-05560e6c/sub/3312930">Download Subtitle</a></p>
</li>
</ul>
</blockquote>
<hr>
<p>^This ^list ^of ^subtitles ^are ^taken ^from <a href="http://www.opensubtitles.org">^opensubtitles.org</a> ^| ^For ^feedback ^or ^suggestions ^contact <a href="http://www.reddit.com/message/compose/?to=indigo6alpha">^/u/indigo6alpha</a></p>
        <p class="toolbar">
            <a href="https://www.reddit.com/r/megalinks/comments/5xsmlj/_/dekjan6">permalink</a>
        </p>
        
    </div>
</div>

<div class="comment" id="t1_dektzhp">
    <p class="userinfo">
        <a
        class="toggle_hide_button"
        href="javascript:void(0)"
        onclick="toggle_collapse(this.parentElement.parentElement)">[-]
        </a>
        <a href="https://www.reddit.com/u/ShanCouseland">ShanCouseland</a>
        <span class="score"> | 2 points</span>
        <span class="timestamp"> | Mar 06 2017 16:19:37</span>
    </p>
    <div class="collapsible">
        <p>Awesome! Thank you!!!</p>
        <p class="toolbar">
            <a href="https://www.reddit.com/r/megalinks/comments/5xsmlj/_/dektzhp">permalink</a>
        </p>
        
    </div>
</div>

<div class="comment" id="t1_dekkx1l">
    <p class="userinfo">
        <a
        class="toggle_hide_button"
        href="javascript:void(0)"
        onclick="toggle_collapse(this.parentElement.parentElement)">[-]
        </a>
        <a href="https://www.reddit.com/u/TheGoodSheep">TheGoodSheep</a>
        <span class="score"> | 1 points</span>
        <span class="timestamp"> | Mar 06 2017 12:15:08</span>
    </p>
    <div class="collapsible">
        <p>BlitzGunther, really? ahaha</p>
        <p class="toolbar">
            <a href="https://www.reddit.com/r/megalinks/comments/5xsmlj/_/dekkx1l">permalink</a>
        </p>
        
    </div>
</div>
</body>

<script>
function toggle_collapse(comment_div)
{
    var button = comment_div.getElementsByClassName("toggle_hide_button")[0];
    var collapsible = comment_div.getElementsByClassName("collapsible")[0];
    if (collapsible.classList.contains("hidden"))
    {
        collapsible.classList.remove("hidden");
        button.innerText = "[-]";
    }
    else
    {
        collapsible.classList.add("hidden");
        button.innerText = "[+]";
    }
}
</script>
</html>
